# xmcd
#
# Track frame offsets:
#	151
#	17236
#	28970
#	40098
#	51173
#	69312
#	83337
#	101854
#	113592
#	124849
#	137866
#	156242
#
# Disc length: 2272 seconds
#
# Revision: 0
# Processed by: cddbd v1.5.2PL0 Copyright (c) Steve Scherf et al.
# Submitted via: EasyCDDAExtractor 8.2.1.1
#
DISCID=9d08de0c
DTITLE=Mike Denver - Absent Friends
DYEAR=2006
DGENRE=Country
TTITLE0=Absent Friends
TTITLE1=Hey Good Lookin'
TTITLE2=Hello Darlin'
TTITLE3=The Only Daddy That'll Walk The Line
TTITLE4=When I Stop Dreamin'
TTITLE5=Drivin' My Life Away
TTITLE6=Seven Spanish Angels
TTITLE7=Mary With The Golden Hair
TTITLE8=But You Love Me Daddy
TTITLE9=That's Alright Mama
TTITLE10=Don't Close Your Eyes
TTITLE11=Cry Cry Cry
EXTD=
EXTT0=
EXTT1=
EXTT2=
EXTT3=
EXTT4=
EXTT5=
EXTT6=
EXTT7=
EXTT8=
EXTT9=
EXTT10=
EXTT11=
PLAYORDER=
